<?xml version="1.0" standalone="no"?>
<!DOCTYPE svg PUBLIC "-//W3C//DTD SVG 20010904//EN"
 "http://www.w3.org/TR/2001/REC-SVG-20010904/DTD/svg10.dtd">
<svg version="1.0" xmlns="http://www.w3.org/2000/svg"
 width="1280.000000pt" height="820.000000pt" viewBox="0 0 1280.000000 820.000000"
 preserveAspectRatio="xMidYMid meet">
<metadata>
Created by potrace 1.15, written by Peter Selinger 2001-2017
</metadata>
<g transform="translate(0.000000,820.000000) scale(0.100000,-0.100000)"
fill="#000000" stroke="none">
<path d="M0 8152 l0 -47 633 -633 c347 -347 637 -632 642 -632 6 0 316 306
690 680 l680 680 -1323 0 -1322 0 0 -48z"/>
<path d="M4010 7525 c371 -371 679 -675 685 -675 6 0 314 304 685 675 l675
675 -1360 0 -1360 0 675 -675z"/>
<path d="M7448 7498 l702 -703 702 703 703 702 -1405 0 -1405 0 703 -702z"/>
<path d="M10812 7493 l708 -708 640 640 640 640 0 67 0 68 -1347 0 -1348 0
707 -707z"/>
<path d="M2240 7355 l-745 -745 743 -742 742 -743 748 748 747 747 -740 740
c-407 407 -742 740 -745 740 -3 0 -340 -335 -750 -745z"/>
<path d="M5655 7359 l-740 -741 710 -704 c391 -387 736 -730 768 -762 l57 -57
740 740 740 740 -762 762 c-420 420 -765 763 -768 763 -3 0 -338 -333 -745
-741z"/>
<path d="M9102 7307 c-397 -397 -722 -727 -722 -732 0 -6 329 -339 730 -740
l730 -730 730 730 730 730 -732 732 c-403 403 -735 733 -738 733 -3 0 -330
-325 -728 -723z"/>
<path d="M0 6610 l0 -1055 527 528 528 527 -528 527 -527 528 0 -1055z"/>
<path d="M12270 7085 l-525 -525 528 -528 527 -527 0 1053 c0 578 -1 1052 -3
1052 -1 0 -238 -236 -527 -525z"/>
<path d="M3952 5657 c-408 -408 -742 -746 -742 -751 0 -5 343 -350 763 -767
l762 -758 745 745 745 744 -765 765 -765 765 -743 -743z"/>
<path d="M637 5752 l-637 -637 0 -190 0 -190 644 -644 c594 -593 646 -643 663
-630 10 7 341 336 736 729 l717 715 -742 743 -743 742 -638 -638z"/>
<path d="M7407 5612 l-737 -737 730 -730 c402 -402 733 -732 736 -735 3 -2
338 329 744 735 l740 740 -732 732 c-403 403 -735 733 -738 733 -3 0 -337
-332 -743 -738z"/>
<path d="M10795 5610 l-730 -731 480 -476 c264 -262 594 -589 733 -727 l252
-251 635 635 635 635 0 185 0 185 -638 638 -637 637 -730 -730z"/>
<path d="M2245 3950 l-730 -730 765 -765 765 -765 732 732 733 733 -762 762
c-420 420 -765 763 -768 763 -3 0 -334 -329 -735 -730z"/>
<path d="M9097 3922 l-737 -737 732 -732 733 -733 740 740 740 740 -730 730
c-401 401 -732 730 -735 730 -3 0 -337 -332 -743 -738z"/>
<path d="M5700 3905 l-745 -745 735 -735 735 -735 745 745 745 745 -735 735
-735 735 -745 -745z"/>
<path d="M0 3220 l0 -1065 532 533 533 532 -533 532 -532 533 0 -1065z"/>
<path d="M12275 3720 l-520 -520 523 -523 522 -522 0 1043 c0 573 -1 1042 -3
1042 -1 0 -236 -234 -522 -520z"/>
<path d="M642 2347 l-642 -642 0 -95 0 -95 718 -718 717 -717 693 693 693 694
-761 759 c-419 417 -764 760 -768 762 -4 1 -296 -287 -650 -641z"/>
<path d="M10787 2232 l-737 -737 693 -693 692 -692 683 683 682 682 0 115 0
115 -633 633 c-347 347 -634 632 -637 632 -3 0 -337 -332 -743 -738z"/>
<path d="M7390 2215 l-745 -745 733 -732 732 -733 745 745 745 745 -733 733
-732 732 -745 -745z"/>
<path d="M3995 2200 l-730 -730 735 -735 735 -735 732 732 733 733 -732 732
c-403 403 -735 733 -738 733 -3 0 -334 -329 -735 -730z"/>
</g>
</svg>
